# xmcd
#
# Track frame offsets:
#	150
#	12792
#	36631
#	48633
#	63518
#	77995
#	92812
#	102456
#	115053
#	127780
#	139187
#	155202
#	168251
#	184553
#	204453
#	239025
#	251694
#	274364
#	288543
#	307460
#
# Disc length: 4264 seconds
#
# Revision: 0
# Processed by: cddbd v1.5.1PL0 Copyright (c) Steve Scherf et al.
# Submitted via: dBpowerAMP V4.0
#
DISCID=3610a614
DTITLE=JAMES BROWN - 20 ALL TIME GREATEST HITS!
DYEAR=1900
DGENRE=blues
TTITLE0=I Got You (I Feel Good)
TTITLE1=Get Up (I Feel Like Being A) Sex Machine, Part 1
TTITLE2=I Got the Feelin'
TTITLE3=Mother Popcorn, Part 1
TTITLE4=Give It Up Or Turnit A Loose
TTITLE5=Make It Funky, Part 1
TTITLE6=Papa's Got A Brand New Bag, Part 1
TTITLE7=Think
TTITLE8=It's A Man's Man's Man's World
TTITLE9=Try Me
TTITLE10=Night Train
TTITLE11=Cold Sweat, Part 1
TTITLE12=Get on the Good Foot
TTITLE13=Papa Don't Take No Mess, Part 1
TTITLE14=The Payback
TTITLE15=Say It Loud (I'm Black and I'm Proud) Part 1
TTITLE16=Super Bad, Parts 1 and 2
TTITLE17=Hot Pants, Part 1
TTITLE18=Get Up Offa That Thing
TTITLE19=Please, Please, Please
EXTD=
EXTT0=
EXTT1=
EXTT2=
EXTT3=
EXTT4=
EXTT5=
EXTT6=
EXTT7=
EXTT8=
EXTT9=
EXTT10=
EXTT11=
EXTT12=
EXTT13=
EXTT14=
EXTT15=
EXTT16=
EXTT17=
EXTT18=
EXTT19=
PLAYORDER=
